<?xml version="1.0" encoding="utf-8"?>
<!-- Generator: Adobe Illustrator 16.0.4, SVG Export Plug-In . SVG Version: 6.00 Build 0)  -->
<!DOCTYPE svg PUBLIC "-//W3C//DTD SVG 1.1//EN" "http://www.w3.org/Graphics/SVG/1.1/DTD/svg11.dtd">
<svg version="1.1" id="Layer_1" xmlns="http://www.w3.org/2000/svg" xmlns:xlink="http://www.w3.org/1999/xlink" x="0px" y="0px"
	 width="50px" height="50px" viewBox="0 0 50 50" enable-background="new 0 0 50 50" xml:space="preserve">
<path d="M36.269,25.979c-0.858,0-1.67,0.207-2.393,0.564l-2.669-4.396h2.937c0.276,0,0.5-0.225,0.5-0.5c0-0.276-0.224-0.5-0.5-0.5
	h-3.75c-0.275,0-0.5,0.224-0.5,0.5c0,0.021,0.01,0.039,0.013,0.06c-0.015,0.108-0.001,0.224,0.061,0.325l0.904,1.49h-3.95
	c0.035-0.332,0.061-0.666,0.061-1.002c0-5.146-4.188-9.332-9.334-9.332c-5.146,0-9.334,4.187-9.334,9.332
	c0,3.527,1.942,6.688,5.072,8.297c-0.021,0.189-0.033,0.384-0.033,0.58c0,2.985,2.431,5.416,5.418,5.416
	c2.774,0,5.065-2.1,5.377-4.791h3.041c0.09,0,0.177-0.026,0.252-0.07c0.002-0.001,0.006-0.001,0.008-0.002
	c0.066-0.041,0.117-0.098,0.156-0.159c0.004-0.005,0.011-0.007,0.014-0.013l4.089-6.881l1.317,2.172
	c-1.314,0.99-2.172,2.559-2.172,4.328c0,2.985,2.431,5.416,5.418,5.416c2.986,0,5.416-2.431,5.416-5.416
	C41.687,28.409,39.256,25.979,36.269,25.979z M9.345,22.979h1.469c0.275,0,0.5-0.224,0.5-0.5c0-0.275-0.225-0.5-0.5-0.5H9.34
	c0.271-4.176,3.624-7.516,7.806-7.766v1.434c0,0.276,0.225,0.5,0.5,0.5c0.276,0,0.5-0.224,0.5-0.5v-1.434
	c4.362,0.262,7.834,3.882,7.834,8.309c0,0.334-0.026,0.668-0.065,1h-2.937c-0.02,0-0.035,0.013-0.053,0.015l-0.843-1.39h1.687
	c0.276,0,0.5-0.224,0.5-0.5c0-0.275-0.224-0.5-0.5-0.5h-4.25c-0.275,0-0.5,0.225-0.5,0.5c0,0.276,0.225,0.5,0.5,0.5h1.394
	l1.312,2.164l-1.269,2.135c-0.67-0.297-1.408-0.465-2.187-0.465c-2.427,0-4.484,1.603-5.172,3.806
	C11.085,28.387,9.5,25.846,9.345,22.979z M21.829,26.932l0.982-1.654l3.485,5.744h-2.131C24.05,29.325,23.153,27.842,21.829,26.932z
	 M23.147,31.021h-3.75l1.916-3.224C22.345,28.53,23.033,29.691,23.147,31.021z M18.769,35.812c-2.436,0-4.416-1.981-4.416-4.416
	c0-2.437,1.98-4.418,4.416-4.418c0.592,0,1.154,0.121,1.672,0.334l-2.351,3.953c-0.092,0.154-0.094,0.346-0.005,0.502
	s0.255,0.254,0.436,0.254h4.603C22.815,34.158,20.99,35.812,18.769,35.812z M27.183,30.55l-3.658-6.028h2.699
	c0.014,0.004,0.024,0.014,0.039,0.017c0.08,0.017,0.157,0.007,0.229-0.017h4.272L27.183,30.55z M36.269,35.812
	c-2.436,0-4.416-1.981-4.416-4.416c0-1.406,0.672-2.647,1.701-3.457l2.33,3.842c0.096,0.154,0.26,0.24,0.428,0.24
	c0.09,0,0.18-0.023,0.26-0.072c0.236-0.145,0.312-0.451,0.169-0.688l-2.339-3.853c0.568-0.27,1.197-0.43,1.867-0.43
	c2.437,0,4.418,1.98,4.418,4.416C40.687,33.831,38.704,35.812,36.269,35.812z M14.942,25.773c-0.209-0.18-0.23-0.496-0.051-0.705
	l2.254-2.607v-4.439c0-0.275,0.224-0.5,0.5-0.5c0.275,0,0.5,0.225,0.5,0.5v4.625c0,0.121-0.043,0.236-0.123,0.328l-2.375,2.75
	c-0.099,0.113-0.237,0.172-0.377,0.172C15.153,25.896,15.038,25.855,14.942,25.773z"/>
</svg>
